HIERARCHY
ROOT Hips
{
	OFFSET 0.000000 0.000000 0.000000
	CHANNELS 6 Xposition Yposition Zposition Yrotation Xrotation Zrotation
	JOINT Chest
	{
		OFFSET 0.000000 -0.009281 11.569106
		CHANNELS 3 Yrotation Xrotation Zrotation
		JOINT Chest2
		{
			OFFSET -0.000000 0.016865 9.269641
			CHANNELS 3 Yrotation Xrotation Zrotation
			JOINT Chest3
			{
				OFFSET -0.000000 0.000001 8.374491
				CHANNELS 3 Yrotation Xrotation Zrotation
				JOINT Chest4
				{
					OFFSET -0.000000 0.000001 8.374493
					CHANNELS 3 Yrotation Xrotation Zrotation
					JOINT Neck
					{
						OFFSET -0.000000 0.000002 12.152554
						CHANNELS 3 Yrotation Xrotation Zrotation
						JOINT Head
						{
							OFFSET -0.000000 0.040101 7.802319
							CHANNELS 3 Yrotation Xrotation Zrotation
							End Site
							{
								OFFSET -0.000000 0.020947 14.853096
							}
						}
					}
					JOINT RightCollar
					{
						OFFSET 2.894404 0.000001 6.791374
						CHANNELS 3 Yrotation Xrotation Zrotation
						JOINT RightShoulder
						{
							OFFSET 13.574684 0.000001 0.000000
							CHANNELS 3 Yrotation Xrotation Zrotation
							JOINT RightElbow
							{
								OFFSET 23.923903 0.000002 0.000000
								CHANNELS 3 Yrotation Xrotation Zrotation
								JOINT RightWrist
								{
									OFFSET 19.846718 0.012767 0.000000
									CHANNELS 3 Yrotation Xrotation Zrotation
									End Site
									{
										OFFSET 14.973145 0.000001 0.000000
									}
								}
							}
						}
					}
					JOINT LeftCollar
					{
						OFFSET -2.894404 0.000001 6.791374
						CHANNELS 3 Yrotation Xrotation Zrotation
						JOINT LeftShoulder
						{
							OFFSET -13.574684 -0.000001 0.000000
							CHANNELS 3 Yrotation Xrotation Zrotation
							JOINT LeftElbow
							{
								OFFSET -23.923903 -0.000002 0.000000
								CHANNELS 3 Yrotation Xrotation Zrotation
								JOINT LeftWrist
								{
									OFFSET -19.846718 0.012763 0.000000
									CHANNELS 3 Yrotation Xrotation Zrotation
									End Site
									{
										OFFSET -14.973145 -0.000001 0.000000
									}
								}
							}
						}
					}
				}
			}
		}
	}
	JOINT RightHip
	{
		OFFSET 9.469263 0.004643 0.045487
		CHANNELS 3 Yrotation Xrotation Zrotation
		JOINT RightKnee
		{
			OFFSET 0.000000 0.002661 -40.478676
			CHANNELS 3 Yrotation Xrotation Zrotation
			JOINT RightAnkle
			{
				OFFSET 0.000000 0.049106 -35.224068
				CHANNELS 3 Yrotation Xrotation Zrotation
				JOINT RightToe
				{
					OFFSET -0.000001 12.539529 -6.151390
					CHANNELS 3 Yrotation Xrotation Zrotation
					End Site
					{
						OFFSET -0.000001 5.044994 -1.291870
					}
				}
			}
		}
	}
	JOINT LeftHip
	{
		OFFSET -9.469263 0.004641 0.045487
		CHANNELS 3 Yrotation Xrotation Zrotation
		JOINT LeftKnee
		{
			OFFSET 0.000000 0.002661 -40.478676
			CHANNELS 3 Yrotation Xrotation Zrotation
			JOINT LeftAnkle
			{
				OFFSET 0.000000 0.049106 -35.224068
				CHANNELS 3 Yrotation Xrotation Zrotation
				JOINT LeftToe
				{
					OFFSET -0.000001 12.539529 -6.151390
					CHANNELS 3 Yrotation Xrotation Zrotation
					End Site
					{
						OFFSET -0.000001 5.044994 -1.291870
					}
				}
			}
		}
	}
}
MOTION
Frames: 15
Frame Time: 0.016667
13.117798 6.003128 82.908974 -5.858727 -1.976137 -106.764053 10.204918 -0.377492 -4.929737 4.527821 -0.271007 -2.203155 4.527822 -0.271005 -2.203155 3.394935 -0.219597 -1.650461 -7.103356 -16.693122 18.200321 -6.870272 4.893702 31.211260 6.658209 6.124920 -6.297223 65.346407 38.967868 19.263434 55.329566 39.201761 68.964775 14.920068 36.390462 24.304562 -7.263878 0.833118 -10.853566 -75.187856 43.873338 -65.763104 -47.009241 40.737512 -60.747525 47.044034 49.479372 5.502878 -3.243214 -10.895508 2.623027 -0.011884 -3.341816 0.314284 1.822550 7.044708 -2.618622 0.020270 0.010384 -0.022655 -3.948160 -11.801912 2.168819 0.203342 -0.349315 3.936389 0.764092 5.136191 -1.161303 0.022240 -0.015445 0.024972 
13.101972 5.998850 82.910919 -5.869208 -1.969663 -106.741889 10.193268 -0.385333 -4.934232 4.523291 -0.274497 -2.205448 4.523293 -0.274497 -2.205450 3.391524 -0.222214 -1.652159 -7.040693 -16.668602 18.183055 -6.756827 4.928076 31.203545 6.633960 6.112599 -6.272787 65.350540 39.020270 19.641503 55.239049 39.722328 68.758613 13.428723 38.001725 25.106423 -7.249338 0.832328 -10.835610 -75.095041 43.879720 -65.709534 -46.983328 40.693963 -60.731836 47.108016 49.610406 5.649542 -3.241012 -10.888036 2.604127 -0.011314 -3.358878 0.328850 1.804358 7.041323 -2.645074 0.021514 0.010706 -0.021158 -3.949232 -11.795498 2.138849 0.209561 -0.355547 3.942094 0.752605 5.122849 -1.153452 0.022600 -0.016149 0.024243 
13.082177 5.994387 82.912804 -5.872325 -1.964998 -106.746807 10.179675 -0.389634 -4.931575 4.518137 -0.276708 -2.204297 4.518142 -0.276706 -2.204296 3.387652 -0.223844 -1.651277 -6.986375 -16.652230 18.163336 -6.660941 4.949435 31.187685 6.626897 6.137667 -6.230856 65.251741 39.037991 19.999738 55.007741 40.492445 68.285103 11.644077 39.604370 25.507951 -7.230332 0.825188 -10.812545 -75.009226 43.897674 -65.659558 -46.956581 40.651172 -60.703313 46.995970 49.741071 5.692120 -3.242420 -10.872257 2.578333 -0.002491 -3.365278 0.356756 1.785410 7.031483 -2.666268 0.018880 0.007432 -0.020289 -3.950255 -11.781827 2.112018 0.216766 -0.362174 3.955807 0.743107 5.111885 -1.144319 0.020028 -0.017984 0.022783 
13.060109 5.983476 82.914619 -5.868981 -1.964181 -106.773690 10.169204 -0.392461 -4.922342 4.514064 -0.277746 -2.199908 4.514066 -0.277746 -2.199909 3.384595 -0.224575 -1.647986 -6.942717 -16.647126 18.141619 -6.587279 4.952501 31.163414 6.634458 6.209115 -6.185380 65.068344 39.062344 20.345860 54.564035 41.357123 67.439334 9.728728 40.911249 25.380319 -7.222933 0.824980 -10.797702 -74.896487 43.918502 -65.584200 -46.914602 40.630026 -60.669422 46.794828 49.937009 5.729847 -3.235715 -10.852494 2.555608 -0.003084 -3.361470 0.385590 1.777231 7.019374 -2.658565 0.011051 0.000779 -0.018969 -3.948101 -11.765221 2.094059 0.225107 -0.364990 3.971299 0.734039 5.103458 -1.102423 0.015449 -0.021370 0.022520 
13.036777 5.969686 82.915833 -5.861339 -1.961633 -106.812465 10.157418 -0.392735 -4.909835 4.509952 -0.277928 -2.193491 4.509955 -0.277927 -2.193490 3.381514 -0.224651 -1.643168 -6.916024 -16.651634 18.121701 -6.545831 4.941151 31.135639 6.650061 6.314886 -6.175016 64.796379 39.020758 20.492951 53.880893 41.973046 66.366926 7.166509 42.103219 24.600369 -7.213271 0.813425 -10.799299 -74.812599 43.971539 -65.537079 -46.853277 40.608733 -60.609173 46.574722 50.104352 5.705479 -3.223480 -10.838096 2.536516 -0.015092 -3.334326 0.413141 1.780056 7.002319 -2.645875 -0.001317 -0.010299 -0.018540 -3.941779 -11.746419 2.084734 0.229465 -0.367047 3.976730 0.727158 5.097606 -1.068066 0.008473 -0.024502 0.021616 
13.013914 5.951616 82.915970 -5.849453 -1.957881 -106.857094 10.148503 -0.390487 -4.897702 4.507527 -0.276947 -2.187150 4.507530 -0.276947 -2.187148 3.379701 -0.223860 -1.638420 -6.909534 -16.662889 18.106654 -6.540965 4.920920 31.109131 6.681068 6.342060 -6.148135 64.411819 38.953768 20.380255 53.159967 42.224083 65.329776 3.778832 42.883899 23.001311 -7.206672 0.800770 -10.796941 -74.751407 44.030029 -65.497723 -46.835276 40.584345 -60.579099 46.502076 50.259909 5.724892 -3.207750 -10.829381 2.525397 -0.034832 -3.287379 0.444660 1.789711 6.986212 -2.636070 -0.015210 -0.026519 -0.018481 -3.938653 -11.729910 2.087050 0.239697 -0.356048 3.973247 0.720019 5.087083 -1.031090 0.000424 -0.027908 0.021137 
12.990833 5.932697 82.915688 -5.833925 -1.952529 -106.900028 10.141179 -0.385543 -4.888004 4.505842 -0.275125 -2.182104 4.505843 -0.275126 -2.182106 3.378448 -0.222451 -1.634650 -6.916092 -16.679967 18.097414 -6.559145 4.891986 31.088275 6.713498 6.302661 -6.139046 64.005348 38.781958 20.156040 52.471791 42.241247 64.421661 0.281428 42.767554 20.651827 -7.196382 0.772242 -10.800468 -74.725159 44.095332 -65.487574 -46.824840 40.576272 -60.566334 46.479004 50.399460 5.776653 -3.188618 -10.832895 2.511342 -0.057010 -3.209346 0.475744 1.801784 6.960809 -2.638535 -0.029532 -0.043646 -0.018195 -3.933110 -11.714245 2.095127 0.248872 -0.336313 3.965712 0.713467 5.074382 -1.001264 -0.007835 -0.032039 0.019873 
12.969211 5.910957 82.915535 -5.818744 -1.947949 -106.938038 10.133275 -0.382239 -4.879205 4.503516 -0.273665 -2.176969 4.503518 -0.273666 -2.176968 3.376711 -0.221310 -1.630812 -6.921592 -16.700219 18.089787 -6.575485 4.856859 31.070510 6.736236 6.323012 -6.167393 63.574117 38.504372 19.783843 51.678871 42.015758 63.529481 -2.200460 41.690457 18.388659 -7.180060 0.749059 -10.820113 -74.719298 44.163037 -65.487963 -46.813106 40.589857 -60.563861 46.441270 50.618074 5.872358 -3.164168 -10.846694 2.489938 -0.087537 -3.118080 0.496282 1.823262 6.934811 -2.624469 -0.043973 -0.059579 -0.017694 -3.924794 -11.701894 2.109485 0.258326 -0.312635 3.948332 0.704863 5.060281 -0.978012 -0.013942 -0.035288 0.019616 
12.948678 5.890678 82.915070 -5.806562 -1.937103 -106.966404 10.127637 -0.377772 -4.870703 4.501902 -0.271851 -2.171871 4.501901 -0.271852 -2.171874 3.375500 -0.219906 -1.627000 -6.924673 -16.724242 18.082521 -6.588017 4.814329 31.053960 6.732803 6.244817 -6.226191 63.301230 38.231376 19.416076 50.991665 41.502729 62.893017 -3.286650 40.051536 16.661065 -7.172769 0.723477 -10.841587 -74.734591 44.212665 -65.505831 -46.819676 40.615365 -60.577931 46.350531 50.878585 5.906165 -3.143967 -10.869771 2.473262 -0.122116 -3.014215 0.499740 1.851180 6.909691 -2.603132 -0.057656 -0.076642 -0.018411 -3.921501 -11.692221 2.112946 0.265985 -0.285344 3.926580 0.697477 5.041834 -0.945094 -0.017771 -0.035931 0.019694 
12.927819 5.870795 82.913536 -5.793557 -1.920652 -106.983282 10.128926 -0.372056 -4.866001 4.502634 -0.269445 -2.168399 4.502636 -0.269446 -2.168403 3.376068 -0.218078 -1.624416 -6.933153 -16.747086 18.083102 -6.607646 4.774183 31.050136 6.727811 6.110445 -6.263625 63.154046 38.003630 19.038271 50.827263 40.775266 62.940699 -3.559111 38.292496 15.280660 -7.169095 0.682939 -10.846952 -74.763387 44.245344 -65.528350 -46.835536 40.633700 -60.603176 46.261349 51.044111 5.917315 -3.127616 -10.899341 2.453745 -0.154421 -2.897006 0.495490 1.877958 6.885430 -2.589846 -0.068880 -0.095111 -0.018156 -3.920297 -11.678151 2.106811 0.272492 -0.260020 3.904388 0.691738 5.024732 -0.916507 -0.021679 -0.037919 0.020252 
12.904236 5.851946 82.910927 -5.781467 -1.904886 -106.984805 10.136919 -0.364106 -4.863353 4.506289 -0.266377 -2.166005 4.506293 -0.266378 -2.166002 3.378816 -0.215773 -1.622640 -6.947673 -16.768890 18.088515 -6.636544 4.736588 31.053206 6.737464 6.014301 -6.270916 63.090211 37.804014 18.667844 51.225575 40.011859 63.658524 -2.999508 36.574587 14.544741 -7.161195 0.626299 -10.843332 -74.796548 44.254455 -65.556135 -46.816220 40.641678 -60.600280 46.230135 51.087472 5.931110 -3.111159 -10.934219 2.422784 -0.177945 -2.772261 0.465159 1.902212 6.857385 -2.561208 -0.077997 -0.111137 -0.016806 -3.917565 -11.661208 2.088991 0.281780 -0.237049 3.883845 0.685776 5.008859 -0.890708 -0.025433 -0.042615 0.020015 
12.879497 5.834140 82.907555 -5.768596 -1.889472 -106.970755 10.149560 -0.351958 -4.864453 4.512174 -0.260885 -2.165602 4.512175 -0.260884 -2.165603 3.383255 -0.211670 -1.622376 -6.957919 -16.797530 18.100375 -6.656906 4.684992 31.069154 6.747380 5.939571 -6.265337 63.205696 37.649324 18.424630 51.915967 39.292238 64.792971 -1.413041 35.150530 14.644315 -7.150738 0.567009 -10.836564 -74.814395 44.243090 -65.564488 -46.791717 40.660270 -60.596837 46.231368 51.019136 5.952920 -3.092905 -10.968144 2.385435 -0.199699 -2.651324 0.426690 1.924464 6.830956 -2.527202 -0.083268 -0.123808 -0.015246 -3.911578 -11.638773 2.069155 0.289770 -0.221108 3.854495 0.682622 4.998117 -0.867174 -0.029607 -0.049795 0.019002 
12.853143 5.817959 82.904251 -5.751935 -1.875571 -106.945237 10.165833 -0.335259 -4.865364 4.519936 -0.253351 -2.165339 4.519935 -0.253353 -2.165338 3.389099 -0.206046 -1.622235 -6.955352 -16.831271 18.114177 -6.654267 4.621376 31.092797 6.731752 5.875997 -6.278034 63.524106 37.649789 18.368561 52.625791 38.612128 65.982708 1.075370 34.318374 15.356366 -7.143450 0.512591 -10.827417 -74.828745 44.212334 -65.568204 -46.833132 40.685664 -60.626870 46.192706 50.930327 5.917360 -3.075314 -10.994364 2.349600 -0.214975 -2.538327 0.379702 1.943982 6.803843 -2.473005 -0.085824 -0.131626 -0.014403 -3.901739 -11.613918 2.066373 0.297657 -0.198647 3.804334 0.680639 4.984842 -0.845059 -0.033264 -0.058969 0.018221 
12.826754 5.804920 82.901840 -5.733222 -1.861610 -106.907746 10.181696 -0.314294 -4.867861 4.527421 -0.243732 -2.166405 4.527425 -0.243731 -2.166408 3.394749 -0.198864 -1.623102 -6.938227 -16.864476 18.129602 -6.624492 4.555697 31.124598 6.715841 5.785568 -6.271536 63.962386 37.906563 18.523635 53.302888 38.023421 67.015432 4.063833 33.950859 16.441222 -7.129750 0.459662 -10.810966 -74.845910 44.154198 -65.568020 -46.898278 40.715038 -60.686224 46.178953 50.876081 5.906776 -3.053855 -11.015311 2.318448 -0.229985 -2.436012 0.334509 1.958833 6.777478 -2.459699 -0.085863 -0.133652 -0.013862 -3.889319 -11.586598 2.073732 0.303228 -0.175328 3.737123 0.680737 4.969155 -0.835958 -0.035940 -0.066463 0.017103 
12.799935 5.793508 82.900505 -5.715017 -1.848342 -106.866075 10.192948 -0.292901 -4.871664 4.532473 -0.233994 -2.168603 4.532474 -0.233996 -2.168602 3.398572 -0.191595 -1.624821 -6.906873 -16.890902 18.146098 -6.567201 4.499494 31.163916 6.703952 5.717755 -6.259984 64.381670 38.290348 18.793445 53.933301 37.593467 67.812857 7.091157 33.808402 17.881097 -7.107886 0.406384 -10.793372 -74.879459 44.090589 -65.584952 -46.942155 40.725447 -60.741706 46.152807 50.777450 5.879493 -3.039278 -11.023217 2.297558 -0.235135 -2.359013 0.291721 1.969760 6.756730 -2.446499 -0.084661 -0.130482 -0.013607 -3.874387 -11.560111 2.079219 0.303418 -0.149003 3.675228 0.682440 4.949057 -0.832545 -0.036459 -0.071556 0.016904 
